<svg xmlns="http://www.w3.org/2000/svg" xmlns:xlink="http://www.w3.org/1999/xlink" width="499" zoomAndPan="magnify" viewBox="0 0 374.25 81.749997" height="109" preserveAspectRatio="xMidYMid meet" version="1.0"><defs><g/><clipPath id="5154ffa04a"><path d="M 20 65 L 188 65 L 188 81.5 L 20 81.5 Z M 20 65 " clip-rule="nonzero"/></clipPath><clipPath id="4c91e7fc65"><path d="M 226.734375 65 L 232 65 L 232 78 L 226.734375 78 Z M 226.734375 65 " clip-rule="nonzero"/></clipPath><clipPath id="86cca6a778"><path d="M 277 64.871094 L 283 64.871094 L 283 78 L 277 78 Z M 277 64.871094 " clip-rule="nonzero"/></clipPath><clipPath id="440971230d"><path d="M 315 68 L 323.515625 68 L 323.515625 81.320312 L 315 81.320312 Z M 315 68 " clip-rule="nonzero"/></clipPath></defs><g fill="#ffffff" fill-opacity="1"><g transform="translate(49.354023, 45.864724)"><g><path d="M 10.125 1.296875 L 0.3125 -21.59375 L 2.734375 -21.59375 L 10.125 -4.1875 L 17.5 -21.59375 L 19.90625 -21.59375 Z M 10.125 1.296875 "/></g></g></g><g fill="#ffffff" fill-opacity="1"><g transform="translate(69.57684, 45.864724)"><g><path d="M 4.640625 -18.796875 C 4.910156 -18.523438 5.046875 -18.195312 5.046875 -17.8125 C 5.046875 -17.40625 4.910156 -17.066406 4.640625 -16.796875 C 4.359375 -16.523438 4.03125 -16.390625 3.65625 -16.390625 C 3.25 -16.390625 2.910156 -16.523438 2.640625 -16.796875 C 2.359375 -17.066406 2.21875 -17.40625 2.21875 -17.8125 C 2.21875 -18.195312 2.359375 -18.523438 2.640625 -18.796875 C 2.910156 -19.066406 3.25 -19.203125 3.65625 -19.203125 C 4.03125 -19.203125 4.359375 -19.066406 4.640625 -18.796875 Z M 4.765625 0 L 2.546875 0 L 2.546875 -13.96875 L 4.765625 -13.96875 Z M 4.765625 0 "/></g></g></g><g fill="#ffffff" fill-opacity="1"><g transform="translate(76.8469, 45.864724)"><g><path d="M 4.40625 -2 C 4.957031 -1.613281 5.679688 -1.421875 6.578125 -1.421875 C 8.609375 -1.421875 9.625 -2.1875 9.625 -3.71875 C 9.625 -4.601562 8.890625 -5.28125 7.421875 -5.75 C 6.816406 -5.957031 6.164062 -6.144531 5.46875 -6.3125 C 4.738281 -6.488281 4.066406 -6.710938 3.453125 -6.984375 C 2.734375 -7.328125 2.195312 -7.75 1.84375 -8.25 C 1.476562 -8.757812 1.296875 -9.363281 1.296875 -10.0625 C 1.296875 -11.457031 1.785156 -12.503906 2.765625 -13.203125 C 3.734375 -13.921875 4.894531 -14.28125 6.25 -14.28125 C 7.601562 -14.28125 8.726562 -14.007812 9.625 -13.46875 C 10.507812 -12.914062 11.113281 -11.929688 11.4375 -10.515625 L 9.046875 -10.515625 C 8.796875 -11.296875 8.425781 -11.8125 7.9375 -12.0625 C 7.46875 -12.320312 6.882812 -12.453125 6.1875 -12.453125 C 5.488281 -12.453125 4.894531 -12.300781 4.40625 -12 C 3.90625 -11.6875 3.65625 -11.222656 3.65625 -10.609375 C 3.65625 -9.972656 3.863281 -9.503906 4.28125 -9.203125 C 4.6875 -8.929688 5.195312 -8.691406 5.8125 -8.484375 C 6.425781 -8.285156 7.09375 -8.113281 7.8125 -7.96875 C 8.507812 -7.800781 9.175781 -7.566406 9.8125 -7.265625 C 11.25 -6.585938 11.96875 -5.5 11.96875 -4 C 11.96875 -2.5 11.425781 -1.390625 10.34375 -0.671875 C 9.800781 -0.304688 9.203125 -0.03125 8.546875 0.15625 C 7.910156 0.320312 7.207031 0.40625 6.4375 0.40625 C 3.207031 0.40625 1.347656 -1.03125 0.859375 -3.90625 L 3.203125 -3.90625 C 3.441406 -3 3.84375 -2.363281 4.40625 -2 Z M 4.40625 -2 "/></g></g></g><g fill="#ffffff" fill-opacity="1"><g transform="translate(89.609179, 45.864724)"><g><path d="M 12.03125 -2.375 C 11 -0.601562 9.441406 0.28125 7.359375 0.28125 C 5.796875 0.28125 4.570312 -0.234375 3.6875 -1.265625 C 2.8125 -2.304688 2.375 -3.628906 2.375 -5.234375 L 2.375 -13.96875 L 4.609375 -13.96875 L 4.609375 -5.234375 C 4.609375 -4.328125 4.816406 -3.554688 5.234375 -2.921875 C 5.640625 -2.265625 6.316406 -1.9375 7.265625 -1.9375 C 9.003906 -1.9375 10.234375 -2.488281 10.953125 -3.59375 C 11.671875 -4.664062 12.03125 -6.175781 12.03125 -8.125 L 12.03125 -13.96875 L 14.25 -13.96875 L 14.25 0 L 12.03125 0 Z M 12.03125 -2.375 "/></g></g></g><g fill="#ffffff" fill-opacity="1"><g transform="translate(105.768384, 45.864724)"><g><path d="M 13.5 -6.984375 C 13.5 -8.335938 13.03125 -9.523438 12.09375 -10.546875 C 11.144531 -11.554688 9.972656 -12.0625 8.578125 -12.0625 C 7.179688 -12.0625 6.015625 -11.554688 5.078125 -10.546875 C 4.128906 -9.523438 3.65625 -8.335938 3.65625 -6.984375 C 3.65625 -5.628906 4.128906 -4.441406 5.078125 -3.421875 C 6.015625 -2.410156 7.179688 -1.90625 8.578125 -1.90625 C 9.972656 -1.90625 11.144531 -2.410156 12.09375 -3.421875 C 13.03125 -4.441406 13.5 -5.628906 13.5 -6.984375 Z M 15.71875 0 L 13.5 0 L 13.5 -2.375 C 13.363281 -2.207031 13.234375 -2.050781 13.109375 -1.90625 C 11.773438 -0.425781 10.144531 0.3125 8.21875 0.3125 C 6.289062 0.3125 4.671875 -0.425781 3.359375 -1.90625 C 2.066406 -3.34375 1.421875 -5.035156 1.421875 -6.984375 C 1.421875 -8.929688 2.066406 -10.625 3.359375 -12.0625 C 4.671875 -13.539062 6.289062 -14.28125 8.21875 -14.28125 C 10.144531 -14.28125 11.773438 -13.539062 13.109375 -12.0625 C 13.234375 -11.914062 13.363281 -11.757812 13.5 -11.59375 L 13.5 -13.96875 L 15.71875 -13.96875 Z M 15.71875 0 "/></g></g></g><g fill="#ffffff" fill-opacity="1"><g transform="translate(123.864161, 45.864724)"><g><path d="M 4.609375 0 L 2.375 0 L 2.375 -23.8125 L 4.609375 -23.8125 Z M 4.609375 0 "/></g></g></g><g fill="#ffffff" fill-opacity="1"><g transform="translate(130.848491, 45.864724)"><g/></g></g><g fill="#ffffff" fill-opacity="1"><g transform="translate(139.420176, 45.864724)"><g><path d="M 22.28125 0 L 18.921875 -15.359375 L 12.453125 1.265625 L 5.9375 -15.359375 L 2.609375 0 L 0.3125 0 L 5.359375 -23.015625 L 12.453125 -4.546875 L 19.53125 -23.015625 L 24.546875 0 Z M 22.28125 0 "/></g></g></g><g fill="#ffffff" fill-opacity="1"><g transform="translate(164.278057, 45.864724)"><g><path d="M 16.03125 -7.296875 L 16.03125 -6.125 L 3.75 -6.125 C 3.957031 -4.914062 4.539062 -3.929688 5.5 -3.171875 C 6.46875 -2.390625 7.546875 -2 8.734375 -2 C 9.535156 -2 10.304688 -2.191406 11.046875 -2.578125 C 11.765625 -2.929688 12.367188 -3.4375 12.859375 -4.09375 L 15.40625 -4.09375 C 14.8125 -2.757812 13.921875 -1.710938 12.734375 -0.953125 C 11.523438 -0.171875 10.304688 0.21875 9.078125 0.21875 C 7.828125 0.21875 6.769531 0.03125 5.90625 -0.34375 C 5.019531 -0.726562 4.25 -1.25 3.59375 -1.90625 C 2.144531 -3.300781 1.421875 -5.015625 1.421875 -7.046875 C 1.421875 -9.054688 2.144531 -10.78125 3.59375 -12.21875 C 5.007812 -13.632812 6.722656 -14.34375 8.734375 -14.34375 C 10.679688 -14.34375 12.382812 -13.65625 13.84375 -12.28125 C 15.300781 -10.882812 16.03125 -9.222656 16.03125 -7.296875 Z M 13.6875 -8.03125 C 13.425781 -9.21875 12.832031 -10.203125 11.90625 -10.984375 C 10.976562 -11.742188 9.921875 -12.125 8.734375 -12.125 C 6.910156 -12.125 5.476562 -11.3125 4.4375 -9.6875 C 4.125 -9.175781 3.90625 -8.625 3.78125 -8.03125 Z M 13.6875 -8.03125 "/></g></g></g><g fill="#ffffff" fill-opacity="1"><g transform="translate(181.580156, 45.864724)"><g><path d="M 9.5625 -11.078125 C 9.050781 -11.546875 8.5 -11.78125 7.90625 -11.78125 C 7.332031 -11.78125 6.84375 -11.617188 6.4375 -11.296875 C 6.019531 -10.960938 5.671875 -10.5625 5.390625 -10.09375 C 4.867188 -9.164062 4.609375 -8.128906 4.609375 -6.984375 L 4.609375 0 L 2.375 0 L 2.375 -13.96875 L 4.609375 -13.96875 L 4.609375 -11.078125 L 4.703125 -11.65625 C 5.441406 -13.382812 6.59375 -14.25 8.15625 -14.25 C 8.644531 -14.25 9.113281 -14.15625 9.5625 -13.96875 Z M 9.5625 -11.078125 "/></g></g></g><g fill="#ffffff" fill-opacity="1"><g transform="translate(191.453465, 45.864724)"><g><path d="M 15.4375 -8.953125 L 13.015625 -8.953125 C 12.640625 -9.835938 12.046875 -10.554688 11.234375 -11.109375 C 10.429688 -11.660156 9.617188 -11.9375 8.796875 -11.9375 C 7.972656 -11.9375 7.265625 -11.8125 6.671875 -11.5625 C 6.078125 -11.28125 5.566406 -10.921875 5.140625 -10.484375 C 4.191406 -9.484375 3.71875 -8.316406 3.71875 -6.984375 C 3.71875 -5.628906 4.191406 -4.46875 5.140625 -3.5 C 6.078125 -2.5 7.222656 -2 8.578125 -2 C 9.460938 -2 10.285156 -2.234375 11.046875 -2.703125 C 11.785156 -3.160156 12.367188 -3.785156 12.796875 -4.578125 L 15.296875 -4.578125 C 14.515625 -2.328125 13.003906 -0.820312 10.765625 -0.0625 C 10.066406 0.1875 9.269531 0.3125 8.375 0.3125 C 7.488281 0.3125 6.613281 0.113281 5.75 -0.28125 C 4.875 -0.664062 4.125 -1.195312 3.5 -1.875 C 2.113281 -3.3125 1.421875 -5.015625 1.421875 -6.984375 C 1.421875 -8.972656 2.113281 -10.675781 3.5 -12.09375 C 4.894531 -13.53125 6.585938 -14.25 8.578125 -14.25 C 10.179688 -14.25 11.628906 -13.753906 12.921875 -12.765625 C 14.148438 -11.804688 14.988281 -10.535156 15.4375 -8.953125 Z M 15.4375 -8.953125 "/></g></g></g><g fill="#ffffff" fill-opacity="1"><g transform="translate(207.993644, 45.864724)"><g><path d="M 4.609375 0 L 2.375 0 L 2.375 -23.8125 L 4.609375 -23.8125 L 4.609375 -11.5625 C 5.066406 -12.34375 5.65625 -12.988281 6.375 -13.5 C 7.144531 -14 8.023438 -14.25 9.015625 -14.25 C 10.015625 -14.25 10.820312 -14.113281 11.4375 -13.84375 C 12.039062 -13.550781 12.554688 -13.160156 12.984375 -12.671875 C 13.828125 -11.671875 14.25 -10.359375 14.25 -8.734375 L 14.25 0 L 12.03125 0 L 12.03125 -8.734375 C 12.03125 -9.640625 11.832031 -10.421875 11.4375 -11.078125 C 11.007812 -11.710938 10.316406 -12.03125 9.359375 -12.03125 C 8.410156 -12.03125 7.640625 -11.882812 7.046875 -11.59375 C 6.453125 -11.269531 5.976562 -10.832031 5.625 -10.28125 C 4.945312 -9.269531 4.609375 -7.789062 4.609375 -5.84375 Z M 4.609375 0 "/></g></g></g><g fill="#ffffff" fill-opacity="1"><g transform="translate(224.152858, 45.864724)"><g><path d="M 13.5 -6.984375 C 13.5 -8.335938 13.03125 -9.523438 12.09375 -10.546875 C 11.144531 -11.554688 9.972656 -12.0625 8.578125 -12.0625 C 7.179688 -12.0625 6.015625 -11.554688 5.078125 -10.546875 C 4.128906 -9.523438 3.65625 -8.335938 3.65625 -6.984375 C 3.65625 -5.628906 4.128906 -4.441406 5.078125 -3.421875 C 6.015625 -2.410156 7.179688 -1.90625 8.578125 -1.90625 C 9.972656 -1.90625 11.144531 -2.410156 12.09375 -3.421875 C 13.03125 -4.441406 13.5 -5.628906 13.5 -6.984375 Z M 15.71875 0 L 13.5 0 L 13.5 -2.375 C 13.363281 -2.207031 13.234375 -2.050781 13.109375 -1.90625 C 11.773438 -0.425781 10.144531 0.3125 8.21875 0.3125 C 6.289062 0.3125 4.671875 -0.425781 3.359375 -1.90625 C 2.066406 -3.34375 1.421875 -5.035156 1.421875 -6.984375 C 1.421875 -8.929688 2.066406 -10.625 3.359375 -12.0625 C 4.671875 -13.539062 6.289062 -14.28125 8.21875 -14.28125 C 10.144531 -14.28125 11.773438 -13.539062 13.109375 -12.0625 C 13.234375 -11.914062 13.363281 -11.757812 13.5 -11.59375 L 13.5 -13.96875 L 15.71875 -13.96875 Z M 15.71875 0 "/></g></g></g><g fill="#ffffff" fill-opacity="1"><g transform="translate(242.248626, 45.864724)"><g><path d="M 12.03125 0 L 12.03125 -8.734375 C 12.03125 -9.640625 11.832031 -10.421875 11.4375 -11.078125 C 11.007812 -11.710938 10.316406 -12.03125 9.359375 -12.03125 C 8.410156 -12.03125 7.640625 -11.851562 7.046875 -11.5 C 6.453125 -11.132812 5.976562 -10.664062 5.625 -10.09375 C 4.945312 -9.039062 4.609375 -7.625 4.609375 -5.84375 L 4.609375 0 L 2.375 0 L 2.375 -13.96875 L 4.609375 -13.96875 L 4.609375 -11.5625 C 5.066406 -12.34375 5.65625 -12.988281 6.375 -13.5 C 7.144531 -14 8.023438 -14.25 9.015625 -14.25 C 10.015625 -14.25 10.820312 -14.113281 11.4375 -13.84375 C 12.039062 -13.550781 12.554688 -13.160156 12.984375 -12.671875 C 13.828125 -11.671875 14.25 -10.359375 14.25 -8.734375 L 14.25 0 Z M 12.03125 0 "/></g></g></g><g fill="#ffffff" fill-opacity="1"><g transform="translate(258.407841, 45.864724)"><g><path d="M 13.5 -6.984375 C 13.5 -8.335938 13.03125 -9.523438 12.09375 -10.546875 C 11.144531 -11.554688 9.972656 -12.0625 8.578125 -12.0625 C 7.179688 -12.0625 6.015625 -11.554688 5.078125 -10.546875 C 4.128906 -9.523438 3.65625 -8.335938 3.65625 -6.984375 C 3.65625 -5.628906 4.128906 -4.441406 5.078125 -3.421875 C 6.015625 -2.410156 7.179688 -1.90625 8.578125 -1.90625 C 9.972656 -1.90625 11.144531 -2.410156 12.09375 -3.421875 C 13.03125 -4.441406 13.5 -5.628906 13.5 -6.984375 Z M 15.71875 0 L 13.5 0 L 13.5 -2.375 C 13.363281 -2.207031 13.234375 -2.050781 13.109375 -1.90625 C 11.773438 -0.425781 10.144531 0.3125 8.21875 0.3125 C 6.289062 0.3125 4.671875 -0.425781 3.359375 -1.90625 C 2.066406 -3.34375 1.421875 -5.035156 1.421875 -6.984375 C 1.421875 -8.929688 2.066406 -10.625 3.359375 -12.0625 C 4.671875 -13.539062 6.289062 -14.28125 8.21875 -14.28125 C 10.144531 -14.28125 11.773438 -13.539062 13.109375 -12.0625 C 13.234375 -11.914062 13.363281 -11.757812 13.5 -11.59375 L 13.5 -23.8125 L 15.71875 -23.8125 Z M 15.71875 0 "/></g></g></g><g fill="#ffffff" fill-opacity="1"><g transform="translate(276.503609, 45.864724)"><g><path d="M 4.640625 -18.796875 C 4.910156 -18.523438 5.046875 -18.195312 5.046875 -17.8125 C 5.046875 -17.40625 4.910156 -17.066406 4.640625 -16.796875 C 4.359375 -16.523438 4.03125 -16.390625 3.65625 -16.390625 C 3.25 -16.390625 2.910156 -16.523438 2.640625 -16.796875 C 2.359375 -17.066406 2.21875 -17.40625 2.21875 -17.8125 C 2.21875 -18.195312 2.359375 -18.523438 2.640625 -18.796875 C 2.910156 -19.066406 3.25 -19.203125 3.65625 -19.203125 C 4.03125 -19.203125 4.359375 -19.066406 4.640625 -18.796875 Z M 4.765625 0 L 2.546875 0 L 2.546875 -13.96875 L 4.765625 -13.96875 Z M 4.765625 0 "/></g></g></g><g fill="#ffffff" fill-opacity="1"><g transform="translate(283.773669, 45.864724)"><g><path d="M 4.40625 -2 C 4.957031 -1.613281 5.679688 -1.421875 6.578125 -1.421875 C 8.609375 -1.421875 9.625 -2.1875 9.625 -3.71875 C 9.625 -4.601562 8.890625 -5.28125 7.421875 -5.75 C 6.816406 -5.957031 6.164062 -6.144531 5.46875 -6.3125 C 4.738281 -6.488281 4.066406 -6.710938 3.453125 -6.984375 C 2.734375 -7.328125 2.195312 -7.75 1.84375 -8.25 C 1.476562 -8.757812 1.296875 -9.363281 1.296875 -10.0625 C 1.296875 -11.457031 1.785156 -12.503906 2.765625 -13.203125 C 3.734375 -13.921875 4.894531 -14.28125 6.25 -14.28125 C 7.601562 -14.28125 8.726562 -14.007812 9.625 -13.46875 C 10.507812 -12.914062 11.113281 -11.929688 11.4375 -10.515625 L 9.046875 -10.515625 C 8.796875 -11.296875 8.425781 -11.8125 7.9375 -12.0625 C 7.46875 -12.320312 6.882812 -12.453125 6.1875 -12.453125 C 5.488281 -12.453125 4.894531 -12.300781 4.40625 -12 C 3.90625 -11.6875 3.65625 -11.222656 3.65625 -10.609375 C 3.65625 -9.972656 3.863281 -9.503906 4.28125 -9.203125 C 4.6875 -8.929688 5.195312 -8.691406 5.8125 -8.484375 C 6.425781 -8.285156 7.09375 -8.113281 7.8125 -7.96875 C 8.507812 -7.800781 9.175781 -7.566406 9.8125 -7.265625 C 11.25 -6.585938 11.96875 -5.5 11.96875 -4 C 11.96875 -2.5 11.425781 -1.390625 10.34375 -0.671875 C 9.800781 -0.304688 9.203125 -0.03125 8.546875 0.15625 C 7.910156 0.320312 7.207031 0.40625 6.4375 0.40625 C 3.207031 0.40625 1.347656 -1.03125 0.859375 -3.90625 L 3.203125 -3.90625 C 3.441406 -3 3.84375 -2.363281 4.40625 -2 Z M 4.40625 -2 "/></g></g></g><g fill="#ffffff" fill-opacity="1"><g transform="translate(296.535948, 45.864724)"><g><path d="M 16.03125 -7.296875 L 16.03125 -6.125 L 3.75 -6.125 C 3.957031 -4.914062 4.539062 -3.929688 5.5 -3.171875 C 6.46875 -2.390625 7.546875 -2 8.734375 -2 C 9.535156 -2 10.304688 -2.191406 11.046875 -2.578125 C 11.765625 -2.929688 12.367188 -3.4375 12.859375 -4.09375 L 15.40625 -4.09375 C 14.8125 -2.757812 13.921875 -1.710938 12.734375 -0.953125 C 11.523438 -0.171875 10.304688 0.21875 9.078125 0.21875 C 7.828125 0.21875 6.769531 0.03125 5.90625 -0.34375 C 5.019531 -0.726562 4.25 -1.25 3.59375 -1.90625 C 2.144531 -3.300781 1.421875 -5.015625 1.421875 -7.046875 C 1.421875 -9.054688 2.144531 -10.78125 3.59375 -12.21875 C 5.007812 -13.632812 6.722656 -14.34375 8.734375 -14.34375 C 10.679688 -14.34375 12.382812 -13.65625 13.84375 -12.28125 C 15.300781 -10.882812 16.03125 -9.222656 16.03125 -7.296875 Z M 13.6875 -8.03125 C 13.425781 -9.21875 12.832031 -10.203125 11.90625 -10.984375 C 10.976562 -11.742188 9.921875 -12.125 8.734375 -12.125 C 6.910156 -12.125 5.476562 -11.3125 4.4375 -9.6875 C 4.125 -9.175781 3.90625 -8.625 3.78125 -8.03125 Z M 13.6875 -8.03125 "/></g></g></g><g fill="#ffffff" fill-opacity="1"><g transform="translate(313.838047, 45.864724)"><g><path d="M 9.5625 -11.078125 C 9.050781 -11.546875 8.5 -11.78125 7.90625 -11.78125 C 7.332031 -11.78125 6.84375 -11.617188 6.4375 -11.296875 C 6.019531 -10.960938 5.671875 -10.5625 5.390625 -10.09375 C 4.867188 -9.164062 4.609375 -8.128906 4.609375 -6.984375 L 4.609375 0 L 2.375 0 L 2.375 -13.96875 L 4.609375 -13.96875 L 4.609375 -11.078125 L 4.703125 -11.65625 C 5.441406 -13.382812 6.59375 -14.25 8.15625 -14.25 C 8.644531 -14.25 9.113281 -14.15625 9.5625 -13.96875 Z M 9.5625 -11.078125 "/></g></g></g><path stroke-linecap="butt" transform="matrix(0.747713, 0, 0, 0.747713, 191.030786, -0.000000996951)" fill="none" stroke-linejoin="miter" d="M 0.000620603 0.997835 L 200.068935 0.997835 " stroke="#ffffff" stroke-width="2" stroke-opacity="1" stroke-miterlimit="4"/><path stroke-linecap="butt" transform="matrix(0, 0.747713, -0.747713, 0, 340.99628, 0.750978)" fill="none" stroke-linejoin="miter" d="M -0.00130832 0.998082 L 46.008762 0.998082 " stroke="#ffffff" stroke-width="2" stroke-opacity="1" stroke-miterlimit="4"/><g clip-path="url(#5154ffa04a)"><path stroke-linecap="butt" transform="matrix(0.747711, -0.00186863, 0.00186863, 0.747711, 28.984921, 73.124482)" fill="none" stroke-linejoin="miter" d="M 0.0019982 0.998535 L 200.07093 1.002227 " stroke="#ffffff" stroke-width="2" stroke-opacity="1" stroke-miterlimit="4"/></g><path stroke-linecap="butt" transform="matrix(0, 0.747713, -0.747713, 0, 29.824233, 39.82617)" fill="none" stroke-linejoin="miter" d="M -0.00260903 0.997853 L 46.007461 0.997853 " stroke="#ffffff" stroke-width="2" stroke-opacity="1" stroke-miterlimit="4"/><g clip-path="url(#4c91e7fc65)"><path fill="#ffffff" d="M 229.398438 69.746094 L 230.949219 69.746094 L 230.949219 68.539062 L 229.398438 68.539062 L 229.398438 65.375 L 227.871094 66.296875 L 227.871094 68.554688 L 226.734375 68.554688 L 226.734375 69.746094 L 227.871094 69.746094 L 227.871094 74.984375 C 227.871094 75.871094 227.921875 76.484375 228.066406 76.808594 C 228.195312 77.097656 228.410156 77.316406 228.714844 77.496094 C 229.039062 77.675781 229.472656 77.769531 230.011719 77.769531 C 230.355469 77.769531 230.75 77.714844 231.183594 77.625 L 230.964844 76.269531 C 230.640625 76.304688 230.425781 76.324219 230.28125 76.324219 C 230.046875 76.324219 229.886719 76.285156 229.742188 76.195312 C 229.617188 76.125 229.542969 76.035156 229.472656 75.90625 C 229.417969 75.78125 229.382812 75.492188 229.382812 75.058594 L 229.382812 69.746094 " fill-opacity="1" fill-rule="nonzero"/></g><path fill="#ffffff" d="M 233.34375 70.996094 C 233.503906 70.597656 233.792969 70.273438 234.191406 70.035156 C 234.585938 69.800781 235.019531 69.675781 235.46875 69.675781 C 236.082031 69.675781 236.566406 69.855469 236.890625 70.21875 C 237.214844 70.5625 237.394531 71.121094 237.394531 71.898438 L 237.394531 77.660156 L 238.925781 77.660156 L 238.925781 71.878906 C 238.925781 70.996094 238.816406 70.308594 238.601562 69.839844 C 238.402344 69.367188 238.042969 69.007812 237.539062 68.738281 C 237.035156 68.464844 236.457031 68.339844 235.773438 68.339844 C 234.695312 68.339844 233.777344 68.753906 233.054688 69.585938 L 233.054688 65.070312 L 231.523438 65.070312 L 231.523438 77.640625 L 233.054688 77.625 L 233.054688 72.675781 C 233.089844 71.933594 233.164062 71.375 233.34375 70.996094 Z M 233.34375 70.996094 " fill-opacity="1" fill-rule="nonzero"/><path fill="#ffffff" d="M 246.613281 69.585938 C 245.839844 68.773438 244.847656 68.339844 243.640625 68.339844 C 242.398438 68.339844 241.375 68.753906 240.597656 69.605469 C 239.789062 70.46875 239.394531 71.664062 239.394531 73.179688 C 239.394531 74.660156 239.789062 75.816406 240.5625 76.613281 C 241.335938 77.425781 242.382812 77.859375 243.714844 77.859375 C 244.757812 77.859375 245.621094 77.585938 246.308594 77.082031 C 246.992188 76.574219 247.460938 75.851562 247.710938 74.914062 L 246.128906 74.714844 C 245.894531 75.382812 245.570312 75.851562 245.171875 76.140625 C 244.777344 76.429688 244.289062 76.574219 243.734375 76.574219 C 242.976562 76.574219 242.347656 76.304688 241.84375 75.78125 C 241.335938 75.257812 241.050781 74.5 240.996094 73.488281 L 247.765625 73.488281 L 247.785156 73.089844 C 247.765625 71.574219 247.386719 70.398438 246.613281 69.585938 Z M 241.878906 70.324219 C 242.347656 69.855469 242.941406 69.605469 243.660156 69.605469 C 244.433594 69.605469 245.066406 69.890625 245.550781 70.488281 C 245.875 70.886719 246.074219 71.445312 246.128906 72.222656 L 241.085938 72.222656 C 241.121094 71.429688 241.390625 70.796875 241.878906 70.324219 Z M 241.878906 70.324219 " fill-opacity="1" fill-rule="nonzero"/><path fill="#ca2126" d="M 250 71.085938 C 250.125 70.722656 250.304688 70.433594 250.574219 70.234375 C 250.828125 70.035156 251.132812 69.945312 251.476562 69.945312 C 251.851562 69.945312 252.230469 70.054688 252.609375 70.273438 L 253.148438 68.84375 C 252.609375 68.519531 252.070312 68.339844 251.566406 68.339844 C 251.203125 68.339844 250.863281 68.449219 250.574219 68.644531 C 250.285156 68.84375 249.960938 69.261719 249.601562 69.929688 L 249.601562 68.554688 L 248.214844 68.554688 L 248.214844 77.660156 L 249.765625 77.640625 L 249.765625 72.890625 C 249.765625 72.222656 249.835938 71.625 250 71.085938 Z M 250 71.085938 " fill-opacity="1" fill-rule="nonzero"/><path fill="#ca2126" d="M 256.480469 68.339844 C 255.238281 68.339844 254.210938 68.753906 253.4375 69.605469 C 252.644531 70.453125 252.25 71.644531 252.25 73.179688 C 252.25 74.660156 252.644531 75.816406 253.417969 76.613281 C 254.195312 77.425781 255.238281 77.859375 256.570312 77.859375 C 257.613281 77.859375 258.480469 77.585938 259.164062 77.082031 C 259.847656 76.574219 260.316406 75.851562 260.566406 74.914062 L 258.984375 74.714844 C 258.75 75.382812 258.425781 75.851562 258.027344 76.140625 C 257.632812 76.429688 257.148438 76.574219 256.589844 76.574219 C 255.832031 76.574219 255.203125 76.304688 254.699219 75.78125 C 254.195312 75.257812 253.90625 74.5 253.851562 73.488281 L 260.585938 73.488281 L 260.605469 73.089844 C 260.605469 71.574219 260.226562 70.417969 259.453125 69.585938 C 258.675781 68.773438 257.6875 68.339844 256.480469 68.339844 Z M 254.714844 70.324219 C 255.183594 69.855469 255.777344 69.605469 256.5 69.605469 C 257.273438 69.605469 257.902344 69.890625 258.390625 70.488281 C 258.714844 70.886719 258.910156 71.445312 258.964844 72.222656 L 253.921875 72.222656 C 253.976562 71.429688 254.230469 70.796875 254.714844 70.324219 Z M 254.714844 70.324219 " fill-opacity="1" fill-rule="nonzero"/><path fill="#ca2126" d="M 261.070312 68.554688 L 259.9375 68.554688 L 259.9375 69.746094 L 261.070312 69.746094 L 261.070312 74.984375 C 261.070312 75.871094 261.125 76.484375 261.269531 76.808594 C 261.394531 77.097656 261.613281 77.316406 261.917969 77.496094 C 262.242188 77.675781 262.675781 77.769531 263.214844 77.769531 C 263.554688 77.769531 263.953125 77.714844 264.386719 77.625 L 264.167969 76.269531 C 263.84375 76.304688 263.628906 76.324219 263.484375 76.324219 C 263.25 76.324219 263.089844 76.285156 262.945312 76.195312 C 262.816406 76.125 262.746094 76.035156 262.691406 75.90625 C 262.636719 75.78125 262.601562 75.492188 262.601562 75.058594 L 262.601562 69.746094 L 264.152344 69.746094 L 264.152344 68.539062 L 262.601562 68.539062 L 262.601562 65.375 L 261.070312 66.296875 Z M 261.070312 68.554688 " fill-opacity="1" fill-rule="nonzero"/><path fill="#ca2126" d="M 272.164062 71.769531 C 272.164062 71.140625 272.144531 70.667969 272.074219 70.363281 C 271.984375 69.945312 271.839844 69.601562 271.605469 69.3125 C 271.371094 69.023438 271.011719 68.808594 270.542969 68.628906 C 270.039062 68.449219 269.40625 68.355469 268.652344 68.355469 C 267.878906 68.355469 267.175781 68.464844 266.582031 68.683594 C 266.003906 68.898438 265.554688 69.207031 265.230469 69.601562 C 264.925781 70 264.691406 70.507812 264.546875 71.15625 L 266.058594 71.355469 C 266.222656 70.707031 266.472656 70.253906 266.816406 70.019531 C 267.15625 69.765625 267.699219 69.640625 268.417969 69.640625 C 269.191406 69.640625 269.785156 69.820312 270.183594 70.164062 C 270.46875 70.417969 270.613281 70.867188 270.613281 71.5 L 270.613281 71.898438 C 270.019531 72.113281 269.101562 72.292969 267.878906 72.4375 C 267.335938 72.492188 266.886719 72.582031 266.507812 72.675781 C 266.09375 72.800781 265.734375 72.964844 265.410156 73.179688 C 265.070312 73.414062 264.796875 73.722656 264.617188 74.066406 C 264.421875 74.425781 264.332031 74.839844 264.332031 75.292969 C 264.332031 76.050781 264.582031 76.664062 265.121094 77.152344 C 265.679688 77.640625 266.4375 77.894531 267.425781 77.894531 C 268.003906 77.894531 268.578125 77.804688 269.121094 77.605469 C 269.640625 77.40625 270.183594 77.0625 270.757812 76.574219 C 270.8125 76.992188 270.921875 77.371094 271.066406 77.714844 L 272.683594 77.714844 C 272.488281 77.351562 272.359375 76.992188 272.289062 76.613281 C 272.234375 76.269531 272.199219 75.367188 272.199219 73.882812 L 272.199219 71.769531 M 269.335938 76.269531 C 268.867188 76.519531 268.347656 76.648438 267.75 76.648438 C 267.140625 76.648438 266.6875 76.519531 266.382812 76.25 C 266.078125 75.980469 265.914062 75.636719 265.914062 75.222656 C 265.914062 74.949219 265.988281 74.714844 266.132812 74.5 C 266.273438 74.261719 266.472656 74.101562 266.742188 73.992188 C 267.011719 73.867188 267.464844 73.757812 268.074219 73.683594 C 269.210938 73.523438 270.054688 73.324219 270.597656 73.109375 L 270.597656 73.667969 C 270.597656 74.355469 270.507812 74.878906 270.34375 75.222656 C 270.144531 75.636719 269.804688 75.996094 269.335938 76.269531 Z M 269.335938 76.269531 " fill-opacity="1" fill-rule="nonzero"/><path fill="#ca2126" d="M 274.59375 68.554688 L 273.046875 68.554688 L 273.046875 77.660156 L 274.59375 77.660156 Z M 274.59375 68.554688 " fill-opacity="1" fill-rule="nonzero"/><path fill="#ca2126" d="M 274.59375 65.085938 L 273.046875 65.085938 L 273.046875 66.859375 L 274.59375 66.859375 Z M 274.59375 65.085938 " fill-opacity="1" fill-rule="nonzero"/><path fill="#ca2126" d="M 276.863281 65.085938 L 275.332031 65.085938 L 275.332031 77.660156 L 276.863281 77.660156 Z M 276.863281 65.085938 " fill-opacity="1" fill-rule="nonzero"/><g clip-path="url(#86cca6a778)"><path fill="#ffffff" d="M 281.976562 69.746094 L 281.976562 68.539062 L 280.210938 68.539062 L 280.210938 67.707031 C 280.210938 67.164062 280.300781 66.785156 280.5 66.570312 C 280.699219 66.371094 281.023438 66.28125 281.488281 66.28125 C 281.796875 66.28125 282.101562 66.296875 282.40625 66.371094 L 282.640625 65.035156 C 282.085938 64.925781 281.597656 64.871094 281.203125 64.871094 C 280.554688 64.871094 280.03125 64.996094 279.636719 65.25 C 279.273438 65.503906 279.003906 65.828125 278.859375 66.207031 C 278.753906 66.496094 278.699219 66.949219 278.699219 67.582031 L 278.699219 68.539062 L 277.332031 68.539062 L 277.332031 69.746094 L 278.699219 69.746094 L 278.699219 77.660156 L 280.210938 77.660156 L 280.210938 69.746094 Z M 281.976562 69.746094 " fill-opacity="1" fill-rule="nonzero"/></g><path fill="#ffffff" d="M 284.066406 70 C 284.40625 69.746094 284.945312 69.621094 285.667969 69.621094 C 286.441406 69.621094 287.035156 69.800781 287.433594 70.144531 C 287.71875 70.398438 287.863281 70.851562 287.863281 71.480469 L 287.863281 71.878906 C 287.269531 72.097656 286.351562 72.277344 285.125 72.421875 C 284.585938 72.476562 284.136719 72.566406 283.757812 72.65625 C 283.34375 72.78125 282.984375 72.945312 282.660156 73.160156 C 282.316406 73.398438 282.046875 73.703125 281.867188 74.046875 C 281.667969 74.40625 281.578125 74.824219 281.578125 75.273438 C 281.578125 76.035156 281.851562 76.648438 282.371094 77.136719 C 282.929688 77.625 283.6875 77.875 284.675781 77.875 C 285.253906 77.875 285.828125 77.785156 286.371094 77.585938 C 286.890625 77.386719 287.433594 77.046875 288.007812 76.558594 C 288.0625 76.972656 288.167969 77.351562 288.3125 77.695312 L 289.933594 77.695312 C 289.734375 77.335938 289.609375 76.972656 289.539062 76.59375 C 289.484375 76.25 289.449219 75.347656 289.449219 73.867188 L 289.449219 71.769531 C 289.449219 71.140625 289.429688 70.667969 289.359375 70.363281 C 289.269531 69.945312 289.125 69.601562 288.890625 69.3125 C 288.65625 69.023438 288.296875 68.808594 287.828125 68.628906 C 287.324219 68.449219 286.695312 68.355469 285.9375 68.355469 C 285.144531 68.355469 284.460938 68.464844 283.867188 68.683594 C 283.289062 68.898438 282.839844 69.207031 282.515625 69.601562 C 282.210938 70 281.976562 70.507812 281.832031 71.15625 L 283.34375 71.355469 C 283.46875 70.6875 283.722656 70.253906 284.066406 70 Z M 287.847656 73.089844 L 287.847656 73.648438 C 287.847656 74.335938 287.753906 74.859375 287.59375 75.203125 C 287.378906 75.65625 287.035156 76.015625 286.566406 76.269531 C 286.097656 76.519531 285.578125 76.648438 284.984375 76.648438 C 284.371094 76.648438 283.921875 76.519531 283.613281 76.25 C 283.308594 75.980469 283.144531 75.636719 283.144531 75.222656 C 283.144531 74.949219 283.21875 74.714844 283.363281 74.5 C 283.507812 74.261719 283.703125 74.101562 283.976562 73.992188 C 284.246094 73.867188 284.695312 73.757812 285.308594 73.683594 C 286.476562 73.503906 287.324219 73.304688 287.847656 73.089844 Z M 287.847656 73.089844 " fill-opacity="1" fill-rule="nonzero"/><path fill="#ffffff" d="M 292.238281 70.453125 C 292.726562 69.890625 293.355469 69.601562 294.128906 69.601562 C 294.652344 69.601562 295.085938 69.765625 295.445312 70.074219 C 295.804688 70.398438 296.054688 70.851562 296.199219 71.445312 L 297.695312 71.210938 C 297.515625 70.289062 297.117188 69.585938 296.488281 69.078125 C 295.859375 68.574219 295.046875 68.320312 294.074219 68.320312 C 293.285156 68.320312 292.5625 68.5 291.914062 68.863281 C 291.25 69.222656 290.746094 69.785156 290.4375 70.523438 C 290.113281 71.265625 289.953125 72.113281 289.953125 73.089844 C 289.953125 74.605469 290.332031 75.761719 291.085938 76.59375 C 291.84375 77.40625 292.832031 77.820312 294.09375 77.820312 C 295.085938 77.820312 295.914062 77.53125 296.597656 76.9375 C 297.28125 76.359375 297.695312 75.527344 297.855469 74.480469 L 296.34375 74.28125 C 296.234375 75.058594 295.984375 75.617188 295.589844 75.980469 C 295.191406 76.339844 294.6875 76.539062 294.074219 76.539062 C 293.320312 76.539062 292.726562 76.269531 292.238281 75.707031 C 291.769531 75.148438 291.535156 74.261719 291.535156 73.054688 C 291.5 71.898438 291.753906 71.011719 292.238281 70.453125 Z M 292.238281 70.453125 " fill-opacity="1" fill-rule="nonzero"/><path fill="#ffffff" d="M 298.503906 68.554688 L 297.371094 68.554688 L 297.371094 69.746094 L 298.503906 69.746094 L 298.503906 74.984375 C 298.503906 75.871094 298.558594 76.484375 298.703125 76.808594 C 298.828125 77.097656 299.046875 77.316406 299.351562 77.496094 C 299.675781 77.675781 300.105469 77.769531 300.648438 77.769531 C 300.988281 77.769531 301.386719 77.714844 301.816406 77.625 L 301.601562 76.269531 C 301.277344 76.304688 301.0625 76.324219 300.917969 76.324219 C 300.683594 76.324219 300.523438 76.285156 300.378906 76.195312 C 300.25 76.125 300.179688 76.035156 300.125 75.90625 C 300.070312 75.78125 300.035156 75.492188 300.035156 75.058594 L 300.035156 69.746094 L 301.585938 69.746094 L 301.585938 68.539062 L 300.035156 68.539062 L 300.035156 65.375 L 298.503906 66.296875 Z M 298.503906 68.554688 " fill-opacity="1" fill-rule="nonzero"/><path fill="#ffffff" d="M 308.425781 69.566406 C 307.632812 68.753906 306.605469 68.339844 305.363281 68.339844 C 304.230469 68.339844 303.277344 68.664062 302.503906 69.351562 C 301.566406 70.164062 301.097656 71.410156 301.097656 73.089844 C 301.097656 74.625 301.492188 75.800781 302.269531 76.628906 C 303.058594 77.441406 304.085938 77.859375 305.347656 77.859375 C 306.121094 77.859375 306.859375 77.660156 307.527344 77.296875 C 308.210938 76.9375 308.714844 76.414062 309.054688 75.746094 C 309.417969 75.058594 309.597656 74.15625 309.597656 72.980469 C 309.613281 71.535156 309.21875 70.398438 308.425781 69.566406 Z M 303.457031 70.488281 C 303.960938 69.910156 304.589844 69.621094 305.363281 69.621094 C 306.121094 69.621094 306.75 69.910156 307.253906 70.488281 C 307.761719 71.066406 308.011719 71.914062 308.011719 73.054688 C 308.011719 74.261719 307.761719 75.128906 307.253906 75.726562 C 306.75 76.304688 306.121094 76.59375 305.363281 76.59375 C 304.589844 76.59375 303.960938 76.304688 303.457031 75.726562 C 302.953125 75.148438 302.699219 74.28125 302.699219 73.109375 C 302.699219 71.914062 302.953125 71.046875 303.457031 70.488281 Z M 303.457031 70.488281 " fill-opacity="1" fill-rule="nonzero"/><path fill="#ffffff" d="M 312.460938 70.234375 C 312.710938 70.035156 313.015625 69.945312 313.359375 69.945312 C 313.738281 69.945312 314.117188 70.054688 314.492188 70.273438 L 315.035156 68.84375 C 314.492188 68.519531 313.953125 68.339844 313.449219 68.339844 C 313.089844 68.339844 312.746094 68.449219 312.460938 68.644531 C 312.171875 68.84375 311.847656 69.261719 311.488281 69.929688 L 311.488281 68.554688 L 310.101562 68.554688 L 310.101562 77.660156 L 311.648438 77.640625 L 311.648438 72.890625 C 311.648438 72.242188 311.738281 71.644531 311.902344 71.085938 C 311.992188 70.722656 312.171875 70.433594 312.460938 70.234375 Z M 312.460938 70.234375 " fill-opacity="1" fill-rule="nonzero"/><g clip-path="url(#440971230d)"><path fill="#ffffff" d="M 323.515625 68.554688 L 321.964844 68.554688 L 320.039062 73.867188 C 319.789062 74.535156 319.570312 75.222656 319.390625 75.945312 C 319.191406 75.167969 318.976562 74.460938 318.742188 73.828125 L 316.851562 68.554688 L 315.195312 68.554688 L 318.636719 77.675781 L 318.507812 78.058594 C 318.3125 78.632812 318.148438 79.015625 318.042969 79.195312 C 317.914062 79.410156 317.753906 79.554688 317.535156 79.664062 C 317.320312 79.789062 317.050781 79.84375 316.726562 79.84375 C 316.472656 79.84375 316.1875 79.789062 315.84375 79.699219 L 316.007812 81.144531 C 316.402344 81.273438 316.726562 81.34375 316.996094 81.34375 C 317.484375 81.34375 317.914062 81.21875 318.257812 80.984375 C 318.617188 80.746094 318.921875 80.367188 319.191406 79.863281 C 319.425781 79.429688 319.714844 78.742188 320.058594 77.785156 Z M 323.515625 68.554688 " fill-opacity="1" fill-rule="nonzero"/></g></svg>