<svg xmlns="http://www.w3.org/2000/svg" xmlns:xlink="http://www.w3.org/1999/xlink" width="500" zoomAndPan="magnify" viewBox="0 0 375 374.999991" height="500" preserveAspectRatio="xMidYMid meet" version="1.0"><defs><g/><clipPath id="df0ae04bb6"><path d="M 240.074219 211.269531 L 245 211.269531 L 245 225 L 240.074219 225 Z M 240.074219 211.269531 " clip-rule="nonzero"/></clipPath><clipPath id="01914b38d1"><path d="M 244 211.269531 L 253 211.269531 L 253 225 L 244 225 Z M 244 211.269531 " clip-rule="nonzero"/></clipPath><clipPath id="6eeec5b8cb"><path d="M 273 211.269531 L 278 211.269531 L 278 225 L 273 225 Z M 273 211.269531 " clip-rule="nonzero"/></clipPath><clipPath id="5c7963fa93"><path d="M 286 211.269531 L 288 211.269531 L 288 214 L 286 214 Z M 286 211.269531 " clip-rule="nonzero"/></clipPath><clipPath id="483c35f200"><path d="M 288 211.269531 L 291 211.269531 L 291 225 L 288 225 Z M 288 211.269531 " clip-rule="nonzero"/></clipPath><clipPath id="46b389aa95"><path d="M 290 211.269531 L 297 211.269531 L 297 225 L 290 225 Z M 290 211.269531 " clip-rule="nonzero"/></clipPath><clipPath id="ad5b0a8681"><path d="M 310 211.269531 L 316 211.269531 L 316 225 L 310 225 Z M 310 211.269531 " clip-rule="nonzero"/></clipPath><clipPath id="23ba2e7059"><path d="M 328 214 L 336.890625 214 L 336.890625 227.769531 L 328 227.769531 Z M 328 214 " clip-rule="nonzero"/></clipPath></defs><rect x="-37.5" width="450" fill="#ffffff" y="-37.499999" height="449.999989" fill-opacity="1"/><rect x="-37.5" width="450" fill="#ffffff" y="-37.499999" height="449.999989" fill-opacity="1"/><g fill="#000000" fill-opacity="1"><g transform="translate(62.149686, 192.2063)"><g><path d="M 10.15625 1.3125 L 0.3125 -21.65625 L 2.734375 -21.65625 L 10.15625 -4.203125 L 17.546875 -21.65625 L 19.96875 -21.65625 Z M 10.15625 1.3125 "/></g></g></g><g fill="#000000" fill-opacity="1"><g transform="translate(82.434347, 192.2063)"><g><path d="M 4.65625 -18.84375 C 4.925781 -18.570312 5.0625 -18.242188 5.0625 -17.859375 C 5.0625 -17.460938 4.925781 -17.125 4.65625 -16.84375 C 4.375 -16.570312 4.039062 -16.4375 3.65625 -16.4375 C 3.257812 -16.4375 2.921875 -16.570312 2.640625 -16.84375 C 2.367188 -17.125 2.234375 -17.460938 2.234375 -17.859375 C 2.234375 -18.242188 2.367188 -18.570312 2.640625 -18.84375 C 2.921875 -19.125 3.257812 -19.265625 3.65625 -19.265625 C 4.039062 -19.265625 4.375 -19.125 4.65625 -18.84375 Z M 4.78125 0 L 2.546875 0 L 2.546875 -14.015625 L 4.78125 -14.015625 Z M 4.78125 0 "/></g></g></g><g fill="#000000" fill-opacity="1"><g transform="translate(89.72664, 192.2063)"><g><path d="M 4.421875 -2 C 4.972656 -1.625 5.695312 -1.4375 6.59375 -1.4375 C 8.632812 -1.4375 9.65625 -2.195312 9.65625 -3.71875 C 9.65625 -4.613281 8.921875 -5.296875 7.453125 -5.765625 C 6.835938 -5.972656 6.179688 -6.164062 5.484375 -6.34375 C 4.753906 -6.507812 4.082031 -6.726562 3.46875 -7 C 2.75 -7.34375 2.207031 -7.769531 1.84375 -8.28125 C 1.488281 -8.789062 1.3125 -9.394531 1.3125 -10.09375 C 1.3125 -11.5 1.796875 -12.550781 2.765625 -13.25 C 3.742188 -13.96875 4.910156 -14.328125 6.265625 -14.328125 C 7.628906 -14.328125 8.757812 -14.050781 9.65625 -13.5 C 10.539062 -12.945312 11.144531 -11.960938 11.46875 -10.546875 L 9.078125 -10.546875 C 8.816406 -11.328125 8.441406 -11.84375 7.953125 -12.09375 C 7.492188 -12.351562 6.910156 -12.484375 6.203125 -12.484375 C 5.503906 -12.484375 4.910156 -12.332031 4.421875 -12.03125 C 3.910156 -11.71875 3.65625 -11.253906 3.65625 -10.640625 C 3.65625 -10.003906 3.867188 -9.535156 4.296875 -9.234375 C 4.703125 -8.960938 5.210938 -8.71875 5.828125 -8.5 C 6.441406 -8.3125 7.109375 -8.144531 7.828125 -8 C 8.535156 -7.820312 9.207031 -7.585938 9.84375 -7.296875 C 11.28125 -6.609375 12 -5.515625 12 -4.015625 C 12 -2.503906 11.457031 -1.390625 10.375 -0.671875 C 9.820312 -0.304688 9.21875 -0.03125 8.5625 0.15625 C 7.925781 0.320312 7.226562 0.40625 6.46875 0.40625 C 3.21875 0.40625 1.347656 -1.035156 0.859375 -3.921875 L 3.21875 -3.921875 C 3.445312 -3.003906 3.847656 -2.363281 4.421875 -2 Z M 4.421875 -2 "/></g></g></g><g fill="#000000" fill-opacity="1"><g transform="translate(102.527947, 192.2063)"><g><path d="M 12.0625 -2.390625 C 11.03125 -0.609375 9.472656 0.28125 7.390625 0.28125 C 5.816406 0.28125 4.582031 -0.238281 3.6875 -1.28125 C 2.820312 -2.3125 2.390625 -3.632812 2.390625 -5.25 L 2.390625 -14.015625 L 4.625 -14.015625 L 4.625 -5.25 C 4.625 -4.34375 4.832031 -3.566406 5.25 -2.921875 C 5.65625 -2.265625 6.335938 -1.9375 7.296875 -1.9375 C 9.035156 -1.9375 10.265625 -2.488281 10.984375 -3.59375 C 11.703125 -4.675781 12.0625 -6.195312 12.0625 -8.15625 L 12.0625 -14.015625 L 14.296875 -14.015625 L 14.296875 0 L 12.0625 0 Z M 12.0625 -2.390625 "/></g></g></g><g fill="#000000" fill-opacity="1"><g transform="translate(118.736569, 192.2063)"><g><path d="M 13.53125 -7 C 13.53125 -8.363281 13.0625 -9.554688 12.125 -10.578125 C 11.175781 -11.585938 10 -12.09375 8.59375 -12.09375 C 7.195312 -12.09375 6.03125 -11.585938 5.09375 -10.578125 C 4.132812 -9.554688 3.65625 -8.363281 3.65625 -7 C 3.65625 -5.644531 4.132812 -4.457031 5.09375 -3.4375 C 6.03125 -2.414062 7.195312 -1.90625 8.59375 -1.90625 C 10 -1.90625 11.175781 -2.414062 12.125 -3.4375 C 13.0625 -4.457031 13.53125 -5.644531 13.53125 -7 Z M 15.765625 0 L 13.53125 0 L 13.53125 -2.390625 C 13.40625 -2.222656 13.28125 -2.0625 13.15625 -1.90625 C 11.8125 -0.425781 10.175781 0.3125 8.25 0.3125 C 6.3125 0.3125 4.6875 -0.425781 3.375 -1.90625 C 2.082031 -3.351562 1.4375 -5.050781 1.4375 -7 C 1.4375 -8.957031 2.082031 -10.65625 3.375 -12.09375 C 4.6875 -13.582031 6.3125 -14.328125 8.25 -14.328125 C 10.175781 -14.328125 11.8125 -13.582031 13.15625 -12.09375 C 13.28125 -11.945312 13.40625 -11.789062 13.53125 -11.625 L 13.53125 -14.015625 L 15.765625 -14.015625 Z M 15.765625 0 "/></g></g></g><g fill="#000000" fill-opacity="1"><g transform="translate(136.887685, 192.2063)"><g><path d="M 4.625 0 L 2.390625 0 L 2.390625 -23.875 L 4.625 -23.875 Z M 4.625 0 "/></g></g></g><g fill="#000000" fill-opacity="1"><g transform="translate(143.893374, 192.2063)"><g/></g></g><g fill="#000000" fill-opacity="1"><g transform="translate(152.491272, 192.2063)"><g><path d="M 22.359375 0 L 18.984375 -15.40625 L 12.484375 1.28125 L 5.953125 -15.40625 L 2.609375 0 L 0.3125 0 L 5.375 -23.09375 L 12.484375 -4.546875 L 19.578125 -23.09375 L 24.609375 0 Z M 22.359375 0 "/></g></g></g><g fill="#000000" fill-opacity="1"><g transform="translate(177.425171, 192.2063)"><g><path d="M 16.078125 -7.328125 L 16.078125 -6.140625 L 3.75 -6.140625 C 3.96875 -4.929688 4.554688 -3.945312 5.515625 -3.1875 C 6.484375 -2.394531 7.5625 -2 8.75 -2 C 9.5625 -2 10.335938 -2.191406 11.078125 -2.578125 C 11.804688 -2.941406 12.410156 -3.453125 12.890625 -4.109375 L 15.4375 -4.109375 C 14.84375 -2.773438 13.953125 -1.722656 12.765625 -0.953125 C 11.554688 -0.171875 10.335938 0.21875 9.109375 0.21875 C 7.859375 0.21875 6.796875 0.03125 5.921875 -0.34375 C 5.023438 -0.726562 4.25 -1.25 3.59375 -1.90625 C 2.15625 -3.3125 1.4375 -5.03125 1.4375 -7.0625 C 1.4375 -9.082031 2.15625 -10.816406 3.59375 -12.265625 C 5.019531 -13.679688 6.738281 -14.390625 8.75 -14.390625 C 10.707031 -14.390625 12.421875 -13.703125 13.890625 -12.328125 C 15.347656 -10.921875 16.078125 -9.253906 16.078125 -7.328125 Z M 13.71875 -8.0625 C 13.46875 -9.25 12.875 -10.234375 11.9375 -11.015625 C 11.007812 -11.785156 9.945312 -12.171875 8.75 -12.171875 C 6.925781 -12.171875 5.492188 -11.351562 4.453125 -9.71875 C 4.140625 -9.207031 3.921875 -8.65625 3.796875 -8.0625 Z M 13.71875 -8.0625 "/></g></g></g><g fill="#000000" fill-opacity="1"><g transform="translate(194.780183, 192.2063)"><g><path d="M 9.578125 -11.109375 C 9.078125 -11.578125 8.523438 -11.8125 7.921875 -11.8125 C 7.347656 -11.8125 6.863281 -11.65625 6.46875 -11.34375 C 6.039062 -11 5.6875 -10.59375 5.40625 -10.125 C 4.882812 -9.1875 4.625 -8.144531 4.625 -7 L 4.625 0 L 2.390625 0 L 2.390625 -14.015625 L 4.625 -14.015625 L 4.625 -11.109375 L 4.71875 -11.6875 C 5.457031 -13.425781 6.613281 -14.296875 8.1875 -14.296875 C 8.675781 -14.296875 9.140625 -14.203125 9.578125 -14.015625 Z M 9.578125 -11.109375 "/></g></g></g><g fill="#000000" fill-opacity="1"><g transform="translate(204.683686, 192.2063)"><g><path d="M 15.46875 -8.984375 L 13.0625 -8.984375 C 12.675781 -9.867188 12.078125 -10.585938 11.265625 -11.140625 C 10.460938 -11.691406 9.648438 -11.96875 8.828125 -11.96875 C 7.992188 -11.96875 7.28125 -11.84375 6.6875 -11.59375 C 6.09375 -11.3125 5.582031 -10.953125 5.15625 -10.515625 C 4.195312 -9.515625 3.71875 -8.34375 3.71875 -7 C 3.71875 -5.644531 4.195312 -4.476562 5.15625 -3.5 C 6.09375 -2.5 7.238281 -2 8.59375 -2 C 9.488281 -2 10.316406 -2.234375 11.078125 -2.703125 C 11.828125 -3.171875 12.410156 -3.796875 12.828125 -4.578125 L 15.34375 -4.578125 C 14.5625 -2.328125 13.046875 -0.820312 10.796875 -0.0625 C 10.097656 0.1875 9.300781 0.3125 8.40625 0.3125 C 7.507812 0.3125 6.628906 0.113281 5.765625 -0.28125 C 4.890625 -0.664062 4.132812 -1.195312 3.5 -1.875 C 2.125 -3.320312 1.4375 -5.03125 1.4375 -7 C 1.4375 -9 2.125 -10.707031 3.5 -12.125 C 4.90625 -13.570312 6.601562 -14.296875 8.59375 -14.296875 C 10.207031 -14.296875 11.660156 -13.796875 12.953125 -12.796875 C 14.191406 -11.847656 15.03125 -10.578125 15.46875 -8.984375 Z M 15.46875 -8.984375 "/></g></g></g><g fill="#000000" fill-opacity="1"><g transform="translate(221.274446, 192.2063)"><g><path d="M 4.625 0 L 2.390625 0 L 2.390625 -23.875 L 4.625 -23.875 L 4.625 -11.59375 C 5.082031 -12.375 5.675781 -13.019531 6.40625 -13.53125 C 7.164062 -14.039062 8.046875 -14.296875 9.046875 -14.296875 C 10.046875 -14.296875 10.851562 -14.160156 11.46875 -13.890625 C 12.082031 -13.585938 12.601562 -13.191406 13.03125 -12.703125 C 13.875 -11.703125 14.296875 -10.382812 14.296875 -8.75 L 14.296875 0 L 12.0625 0 L 12.0625 -8.75 C 12.0625 -9.664062 11.863281 -10.453125 11.46875 -11.109375 C 11.039062 -11.742188 10.347656 -12.0625 9.390625 -12.0625 C 8.429688 -12.0625 7.65625 -11.914062 7.0625 -11.625 C 6.46875 -11.300781 5.992188 -10.863281 5.640625 -10.3125 C 4.960938 -9.289062 4.625 -7.804688 4.625 -5.859375 Z M 4.625 0 "/></g></g></g><g fill="#000000" fill-opacity="1"><g transform="translate(237.483077, 192.2063)"><g><path d="M 13.53125 -7 C 13.53125 -8.363281 13.0625 -9.554688 12.125 -10.578125 C 11.175781 -11.585938 10 -12.09375 8.59375 -12.09375 C 7.195312 -12.09375 6.03125 -11.585938 5.09375 -10.578125 C 4.132812 -9.554688 3.65625 -8.363281 3.65625 -7 C 3.65625 -5.644531 4.132812 -4.457031 5.09375 -3.4375 C 6.03125 -2.414062 7.195312 -1.90625 8.59375 -1.90625 C 10 -1.90625 11.175781 -2.414062 12.125 -3.4375 C 13.0625 -4.457031 13.53125 -5.644531 13.53125 -7 Z M 15.765625 0 L 13.53125 0 L 13.53125 -2.390625 C 13.40625 -2.222656 13.28125 -2.0625 13.15625 -1.90625 C 11.8125 -0.425781 10.175781 0.3125 8.25 0.3125 C 6.3125 0.3125 4.6875 -0.425781 3.375 -1.90625 C 2.082031 -3.351562 1.4375 -5.050781 1.4375 -7 C 1.4375 -8.957031 2.082031 -10.65625 3.375 -12.09375 C 4.6875 -13.582031 6.3125 -14.328125 8.25 -14.328125 C 10.175781 -14.328125 11.8125 -13.582031 13.15625 -12.09375 C 13.28125 -11.945312 13.40625 -11.789062 13.53125 -11.625 L 13.53125 -14.015625 L 15.765625 -14.015625 Z M 15.765625 0 "/></g></g></g><g fill="#000000" fill-opacity="1"><g transform="translate(255.634184, 192.2063)"><g><path d="M 12.0625 0 L 12.0625 -8.75 C 12.0625 -9.664062 11.863281 -10.453125 11.46875 -11.109375 C 11.039062 -11.742188 10.347656 -12.0625 9.390625 -12.0625 C 8.429688 -12.0625 7.65625 -11.882812 7.0625 -11.53125 C 6.46875 -11.164062 5.992188 -10.695312 5.640625 -10.125 C 4.960938 -9.0625 4.625 -7.640625 4.625 -5.859375 L 4.625 0 L 2.390625 0 L 2.390625 -14.015625 L 4.625 -14.015625 L 4.625 -11.59375 C 5.082031 -12.375 5.675781 -13.019531 6.40625 -13.53125 C 7.164062 -14.039062 8.046875 -14.296875 9.046875 -14.296875 C 10.046875 -14.296875 10.851562 -14.160156 11.46875 -13.890625 C 12.082031 -13.585938 12.601562 -13.191406 13.03125 -12.703125 C 13.875 -11.703125 14.296875 -10.382812 14.296875 -8.75 L 14.296875 0 Z M 12.0625 0 "/></g></g></g><g fill="#000000" fill-opacity="1"><g transform="translate(271.842815, 192.2063)"><g><path d="M 13.53125 -7 C 13.53125 -8.363281 13.0625 -9.554688 12.125 -10.578125 C 11.175781 -11.585938 10 -12.09375 8.59375 -12.09375 C 7.195312 -12.09375 6.03125 -11.585938 5.09375 -10.578125 C 4.132812 -9.554688 3.65625 -8.363281 3.65625 -7 C 3.65625 -5.644531 4.132812 -4.457031 5.09375 -3.4375 C 6.03125 -2.414062 7.195312 -1.90625 8.59375 -1.90625 C 10 -1.90625 11.175781 -2.414062 12.125 -3.4375 C 13.0625 -4.457031 13.53125 -5.644531 13.53125 -7 Z M 15.765625 0 L 13.53125 0 L 13.53125 -2.390625 C 13.40625 -2.222656 13.28125 -2.0625 13.15625 -1.90625 C 11.8125 -0.425781 10.175781 0.3125 8.25 0.3125 C 6.3125 0.3125 4.6875 -0.425781 3.375 -1.90625 C 2.082031 -3.351562 1.4375 -5.050781 1.4375 -7 C 1.4375 -8.957031 2.082031 -10.65625 3.375 -12.09375 C 4.6875 -13.582031 6.3125 -14.328125 8.25 -14.328125 C 10.175781 -14.328125 11.8125 -13.582031 13.15625 -12.09375 C 13.28125 -11.945312 13.40625 -11.789062 13.53125 -11.625 L 13.53125 -23.875 L 15.765625 -23.875 Z M 15.765625 0 "/></g></g></g><g fill="#000000" fill-opacity="1"><g transform="translate(289.993922, 192.2063)"><g><path d="M 4.65625 -18.84375 C 4.925781 -18.570312 5.0625 -18.242188 5.0625 -17.859375 C 5.0625 -17.460938 4.925781 -17.125 4.65625 -16.84375 C 4.375 -16.570312 4.039062 -16.4375 3.65625 -16.4375 C 3.257812 -16.4375 2.921875 -16.570312 2.640625 -16.84375 C 2.367188 -17.125 2.234375 -17.460938 2.234375 -17.859375 C 2.234375 -18.242188 2.367188 -18.570312 2.640625 -18.84375 C 2.921875 -19.125 3.257812 -19.265625 3.65625 -19.265625 C 4.039062 -19.265625 4.375 -19.125 4.65625 -18.84375 Z M 4.78125 0 L 2.546875 0 L 2.546875 -14.015625 L 4.78125 -14.015625 Z M 4.78125 0 "/></g></g></g><g fill="#000000" fill-opacity="1"><g transform="translate(297.286215, 192.2063)"><g><path d="M 4.421875 -2 C 4.972656 -1.625 5.695312 -1.4375 6.59375 -1.4375 C 8.632812 -1.4375 9.65625 -2.195312 9.65625 -3.71875 C 9.65625 -4.613281 8.921875 -5.296875 7.453125 -5.765625 C 6.835938 -5.972656 6.179688 -6.164062 5.484375 -6.34375 C 4.753906 -6.507812 4.082031 -6.726562 3.46875 -7 C 2.75 -7.34375 2.207031 -7.769531 1.84375 -8.28125 C 1.488281 -8.789062 1.3125 -9.394531 1.3125 -10.09375 C 1.3125 -11.5 1.796875 -12.550781 2.765625 -13.25 C 3.742188 -13.96875 4.910156 -14.328125 6.265625 -14.328125 C 7.628906 -14.328125 8.757812 -14.050781 9.65625 -13.5 C 10.539062 -12.945312 11.144531 -11.960938 11.46875 -10.546875 L 9.078125 -10.546875 C 8.816406 -11.328125 8.441406 -11.84375 7.953125 -12.09375 C 7.492188 -12.351562 6.910156 -12.484375 6.203125 -12.484375 C 5.503906 -12.484375 4.910156 -12.332031 4.421875 -12.03125 C 3.910156 -11.71875 3.65625 -11.253906 3.65625 -10.640625 C 3.65625 -10.003906 3.867188 -9.535156 4.296875 -9.234375 C 4.703125 -8.960938 5.210938 -8.71875 5.828125 -8.5 C 6.441406 -8.3125 7.109375 -8.144531 7.828125 -8 C 8.535156 -7.820312 9.207031 -7.585938 9.84375 -7.296875 C 11.28125 -6.609375 12 -5.515625 12 -4.015625 C 12 -2.503906 11.457031 -1.390625 10.375 -0.671875 C 9.820312 -0.304688 9.21875 -0.03125 8.5625 0.15625 C 7.925781 0.320312 7.226562 0.40625 6.46875 0.40625 C 3.21875 0.40625 1.347656 -1.035156 0.859375 -3.921875 L 3.21875 -3.921875 C 3.445312 -3.003906 3.847656 -2.363281 4.421875 -2 Z M 4.421875 -2 "/></g></g></g><g fill="#000000" fill-opacity="1"><g transform="translate(310.087523, 192.2063)"><g><path d="M 16.078125 -7.328125 L 16.078125 -6.140625 L 3.75 -6.140625 C 3.96875 -4.929688 4.554688 -3.945312 5.515625 -3.1875 C 6.484375 -2.394531 7.5625 -2 8.75 -2 C 9.5625 -2 10.335938 -2.191406 11.078125 -2.578125 C 11.804688 -2.941406 12.410156 -3.453125 12.890625 -4.109375 L 15.4375 -4.109375 C 14.84375 -2.773438 13.953125 -1.722656 12.765625 -0.953125 C 11.554688 -0.171875 10.335938 0.21875 9.109375 0.21875 C 7.859375 0.21875 6.796875 0.03125 5.921875 -0.34375 C 5.023438 -0.726562 4.25 -1.25 3.59375 -1.90625 C 2.15625 -3.3125 1.4375 -5.03125 1.4375 -7.0625 C 1.4375 -9.082031 2.15625 -10.816406 3.59375 -12.265625 C 5.019531 -13.679688 6.738281 -14.390625 8.75 -14.390625 C 10.707031 -14.390625 12.421875 -13.703125 13.890625 -12.328125 C 15.347656 -10.921875 16.078125 -9.253906 16.078125 -7.328125 Z M 13.71875 -8.0625 C 13.46875 -9.25 12.875 -10.234375 11.9375 -11.015625 C 11.007812 -11.785156 9.945312 -12.171875 8.75 -12.171875 C 6.925781 -12.171875 5.492188 -11.351562 4.453125 -9.71875 C 4.140625 -9.207031 3.921875 -8.65625 3.796875 -8.0625 Z M 13.71875 -8.0625 "/></g></g></g><g fill="#000000" fill-opacity="1"><g transform="translate(327.442534, 192.2063)"><g><path d="M 9.578125 -11.109375 C 9.078125 -11.578125 8.523438 -11.8125 7.921875 -11.8125 C 7.347656 -11.8125 6.863281 -11.65625 6.46875 -11.34375 C 6.039062 -11 5.6875 -10.59375 5.40625 -10.125 C 4.882812 -9.1875 4.625 -8.144531 4.625 -7 L 4.625 0 L 2.390625 0 L 2.390625 -14.015625 L 4.625 -14.015625 L 4.625 -11.109375 L 4.71875 -11.6875 C 5.457031 -13.425781 6.613281 -14.296875 8.1875 -14.296875 C 8.675781 -14.296875 9.140625 -14.203125 9.578125 -14.015625 Z M 9.578125 -11.109375 "/></g></g></g><path stroke-linecap="butt" transform="matrix(0.75, 0, 0, 0.75, 204.259707, 146.201314)" fill="none" stroke-linejoin="miter" d="M -0.00252612 1.002415 L 200.070404 1.002415 " stroke="#3d3b3a" stroke-width="2" stroke-opacity="1" stroke-miterlimit="4"/><path stroke-linecap="butt" transform="matrix(0, 0.75, -0.75, 0, 354.683799, 146.95458)" fill="none" stroke-linejoin="miter" d="M -0.00193993 1.000273 L 46.00848 1.000273 " stroke="#000000" stroke-width="2" stroke-opacity="1" stroke-miterlimit="4"/><path stroke-linecap="butt" transform="matrix(0.749998, -0.00187434, 0.00187434, 0.749998, 41.718295, 219.54942)" fill="none" stroke-linejoin="miter" d="M -0.00189641 1.001813 L 200.071661 1.001822 " stroke="#3d3b3a" stroke-width="2" stroke-opacity="1" stroke-miterlimit="4"/><path stroke-linecap="butt" transform="matrix(0, 0.75, -0.75, 0, 42.560174, 186.14927)" fill="none" stroke-linejoin="miter" d="M -0.00111024 1.002107 L 46.009309 1.002107 " stroke="#000000" stroke-width="2" stroke-opacity="1" stroke-miterlimit="4"/><g clip-path="url(#df0ae04bb6)"><path fill="#1d1d1b" d="M 242.738281 216.15625 L 244.289062 216.15625 L 244.289062 214.945312 L 242.738281 214.945312 L 242.738281 211.777344 L 241.207031 212.699219 L 241.207031 214.960938 L 240.074219 214.960938 L 240.074219 216.15625 L 241.207031 216.15625 L 241.207031 221.402344 C 241.207031 222.289062 241.261719 222.902344 241.40625 223.230469 C 241.53125 223.519531 241.746094 223.734375 242.054688 223.917969 C 242.378906 224.097656 242.808594 224.1875 243.351562 224.1875 C 243.691406 224.1875 244.089844 224.132812 244.523438 224.042969 L 244.304688 222.6875 C 243.980469 222.722656 243.765625 222.742188 243.621094 222.742188 C 243.386719 222.742188 243.226562 222.703125 243.082031 222.613281 C 242.953125 222.542969 242.882812 222.453125 242.808594 222.324219 C 242.757812 222.199219 242.71875 221.910156 242.71875 221.476562 L 242.71875 216.15625 " fill-opacity="1" fill-rule="nonzero"/></g><g clip-path="url(#01914b38d1)"><path fill="#1d1d1b" d="M 246.683594 217.402344 C 246.84375 217.007812 247.132812 216.679688 247.53125 216.445312 C 247.925781 216.210938 248.359375 216.082031 248.808594 216.082031 C 249.421875 216.082031 249.90625 216.265625 250.230469 216.625 C 250.554688 216.96875 250.734375 217.53125 250.734375 218.308594 L 250.734375 224.078125 L 252.265625 224.078125 L 252.265625 218.289062 C 252.265625 217.402344 252.160156 216.714844 251.941406 216.246094 C 251.746094 215.777344 251.382812 215.414062 250.878906 215.140625 C 250.375 214.871094 249.800781 214.746094 249.113281 214.746094 C 248.035156 214.746094 247.117188 215.160156 246.394531 215.992188 L 246.394531 211.46875 L 244.863281 211.46875 L 244.863281 224.0625 L 246.394531 224.042969 L 246.394531 219.085938 C 246.429688 218.34375 246.503906 217.785156 246.683594 217.402344 Z M 246.683594 217.402344 " fill-opacity="1" fill-rule="nonzero"/></g><path fill="#1d1d1b" d="M 259.957031 215.992188 C 259.183594 215.179688 258.195312 214.746094 256.988281 214.746094 C 255.742188 214.746094 254.71875 215.160156 253.941406 216.011719 C 253.132812 216.878906 252.734375 218.074219 252.734375 219.59375 C 252.734375 221.078125 253.132812 222.234375 253.90625 223.03125 C 254.679688 223.84375 255.726562 224.277344 257.058594 224.277344 C 258.101562 224.277344 258.96875 224.007812 259.652344 223.5 C 260.335938 222.996094 260.804688 222.269531 261.058594 221.328125 L 259.472656 221.132812 C 259.238281 221.800781 258.914062 222.269531 258.519531 222.558594 C 258.121094 222.851562 257.636719 222.996094 257.078125 222.996094 C 256.320312 222.996094 255.691406 222.722656 255.183594 222.199219 C 254.679688 221.671875 254.394531 220.914062 254.339844 219.902344 L 261.113281 219.902344 L 261.128906 219.503906 C 261.113281 217.984375 260.734375 216.808594 259.957031 215.992188 Z M 255.222656 216.734375 C 255.691406 216.265625 256.285156 216.011719 257.003906 216.011719 C 257.777344 216.011719 258.410156 216.300781 258.894531 216.898438 C 259.21875 217.296875 259.417969 217.855469 259.472656 218.632812 L 254.429688 218.632812 C 254.464844 217.839844 254.734375 217.203125 255.222656 216.734375 Z M 255.222656 216.734375 " fill-opacity="1" fill-rule="nonzero"/><path fill="#ca2126" d="M 263.34375 217.496094 C 263.472656 217.132812 263.652344 216.84375 263.921875 216.644531 C 264.171875 216.445312 264.480469 216.355469 264.820312 216.355469 C 265.199219 216.355469 265.578125 216.464844 265.957031 216.679688 L 266.496094 215.25 C 265.957031 214.925781 265.417969 214.746094 264.914062 214.746094 C 264.550781 214.746094 264.210938 214.851562 263.921875 215.050781 C 263.632812 215.25 263.308594 215.667969 262.949219 216.335938 L 262.949219 214.960938 L 261.5625 214.960938 L 261.5625 224.078125 L 263.109375 224.0625 L 263.109375 219.304688 C 263.109375 218.632812 263.183594 218.039062 263.34375 217.496094 Z M 263.34375 217.496094 " fill-opacity="1" fill-rule="nonzero"/><path fill="#ca2126" d="M 269.828125 214.746094 C 268.585938 214.746094 267.558594 215.160156 266.785156 216.011719 C 265.992188 216.859375 265.597656 218.054688 265.597656 219.59375 C 265.597656 221.078125 265.992188 222.234375 266.769531 223.03125 C 267.542969 223.84375 268.585938 224.277344 269.917969 224.277344 C 270.964844 224.277344 271.828125 224.007812 272.515625 223.5 C 273.199219 222.996094 273.667969 222.269531 273.917969 221.328125 L 272.332031 221.132812 C 272.097656 221.800781 271.773438 222.269531 271.378906 222.558594 C 270.984375 222.851562 270.496094 222.996094 269.9375 222.996094 C 269.179688 222.996094 268.550781 222.722656 268.046875 222.199219 C 267.542969 221.671875 267.253906 220.914062 267.199219 219.902344 L 273.9375 219.902344 L 273.953125 219.503906 C 273.953125 217.984375 273.578125 216.824219 272.800781 215.992188 C 272.027344 215.179688 271.035156 214.746094 269.828125 214.746094 Z M 268.066406 216.734375 C 268.53125 216.265625 269.128906 216.011719 269.847656 216.011719 C 270.621094 216.011719 271.253906 216.300781 271.738281 216.898438 C 272.0625 217.296875 272.261719 217.855469 272.316406 218.632812 L 267.273438 218.632812 C 267.324219 217.839844 267.578125 217.203125 268.066406 216.734375 Z M 268.066406 216.734375 " fill-opacity="1" fill-rule="nonzero"/><g clip-path="url(#6eeec5b8cb)"><path fill="#ca2126" d="M 274.421875 214.960938 L 273.289062 214.960938 L 273.289062 216.15625 L 274.421875 216.15625 L 274.421875 221.402344 C 274.421875 222.289062 274.476562 222.902344 274.621094 223.230469 C 274.746094 223.519531 274.964844 223.734375 275.269531 223.917969 C 275.59375 224.097656 276.027344 224.1875 276.566406 224.1875 C 276.910156 224.1875 277.304688 224.132812 277.738281 224.042969 L 277.519531 222.6875 C 277.195312 222.722656 276.980469 222.742188 276.835938 222.742188 C 276.601562 222.742188 276.441406 222.703125 276.296875 222.613281 C 276.171875 222.542969 276.097656 222.453125 276.042969 222.324219 C 275.988281 222.199219 275.953125 221.910156 275.953125 221.476562 L 275.953125 216.15625 L 277.503906 216.15625 L 277.503906 214.945312 L 275.953125 214.945312 L 275.953125 211.777344 L 274.421875 212.699219 Z M 274.421875 214.960938 " fill-opacity="1" fill-rule="nonzero"/></g><path fill="#ca2126" d="M 285.519531 218.183594 C 285.519531 217.546875 285.5 217.078125 285.429688 216.769531 C 285.339844 216.355469 285.195312 216.011719 284.960938 215.722656 C 284.726562 215.433594 284.367188 215.214844 283.898438 215.035156 C 283.394531 214.851562 282.761719 214.761719 282.007812 214.761719 C 281.230469 214.761719 280.53125 214.871094 279.933594 215.089844 C 279.359375 215.304688 278.910156 215.613281 278.582031 216.011719 C 278.277344 216.410156 278.042969 216.914062 277.898438 217.566406 L 279.414062 217.765625 C 279.574219 217.113281 279.828125 216.664062 280.167969 216.425781 C 280.511719 216.171875 281.050781 216.046875 281.773438 216.046875 C 282.546875 216.046875 283.140625 216.226562 283.539062 216.570312 C 283.824219 216.824219 283.96875 217.277344 283.96875 217.910156 L 283.96875 218.308594 C 283.375 218.527344 282.457031 218.707031 281.230469 218.851562 C 280.691406 218.90625 280.242188 218.996094 279.863281 219.085938 C 279.449219 219.214844 279.089844 219.375 278.765625 219.59375 C 278.421875 219.828125 278.152344 220.136719 277.972656 220.480469 C 277.773438 220.839844 277.683594 221.257812 277.683594 221.710938 C 277.683594 222.46875 277.9375 223.085938 278.476562 223.574219 C 279.035156 224.0625 279.792969 224.316406 280.78125 224.316406 C 281.359375 224.316406 281.933594 224.226562 282.476562 224.027344 C 282.996094 223.828125 283.539062 223.484375 284.113281 222.996094 C 284.167969 223.410156 284.277344 223.789062 284.421875 224.132812 L 286.042969 224.132812 C 285.84375 223.773438 285.71875 223.410156 285.644531 223.03125 C 285.589844 222.6875 285.554688 221.78125 285.554688 220.296875 L 285.554688 218.183594 M 282.691406 222.6875 C 282.222656 222.941406 281.699219 223.066406 281.105469 223.066406 C 280.492188 223.066406 280.042969 222.941406 279.738281 222.667969 C 279.429688 222.398438 279.269531 222.054688 279.269531 221.636719 C 279.269531 221.367188 279.339844 221.132812 279.484375 220.914062 C 279.628906 220.679688 279.828125 220.515625 280.097656 220.40625 C 280.367188 220.28125 280.816406 220.171875 281.429688 220.101562 C 282.566406 219.9375 283.410156 219.738281 283.953125 219.519531 L 283.953125 220.082031 C 283.953125 220.769531 283.863281 221.292969 283.699219 221.636719 C 283.5 222.054688 283.160156 222.414062 282.691406 222.6875 Z M 282.691406 222.6875 " fill-opacity="1" fill-rule="nonzero"/><path fill="#ca2126" d="M 287.949219 214.960938 L 286.402344 214.960938 L 286.402344 224.078125 L 287.949219 224.078125 Z M 287.949219 214.960938 " fill-opacity="1" fill-rule="nonzero"/><g clip-path="url(#5c7963fa93)"><path fill="#ca2126" d="M 287.949219 211.488281 L 286.402344 211.488281 L 286.402344 213.261719 L 287.949219 213.261719 Z M 287.949219 211.488281 " fill-opacity="1" fill-rule="nonzero"/></g><g clip-path="url(#483c35f200)"><path fill="#ca2126" d="M 290.21875 211.488281 L 288.6875 211.488281 L 288.6875 224.078125 L 290.21875 224.078125 Z M 290.21875 211.488281 " fill-opacity="1" fill-rule="nonzero"/></g><g clip-path="url(#46b389aa95)"><path fill="#1d1d1b" d="M 295.335938 216.15625 L 295.335938 214.945312 L 293.570312 214.945312 L 293.570312 214.109375 C 293.570312 213.570312 293.660156 213.1875 293.859375 212.972656 C 294.058594 212.773438 294.382812 212.683594 294.847656 212.683594 C 295.15625 212.683594 295.460938 212.699219 295.769531 212.773438 L 296.003906 211.433594 C 295.445312 211.324219 294.957031 211.269531 294.5625 211.269531 C 293.914062 211.269531 293.390625 211.398438 292.996094 211.652344 C 292.632812 211.902344 292.363281 212.230469 292.21875 212.609375 C 292.113281 212.898438 292.058594 213.351562 292.058594 213.984375 L 292.058594 214.945312 L 290.6875 214.945312 L 290.6875 216.15625 L 292.058594 216.15625 L 292.058594 224.078125 L 293.570312 224.078125 L 293.570312 216.15625 Z M 295.335938 216.15625 " fill-opacity="1" fill-rule="nonzero"/></g><path fill="#1d1d1b" d="M 297.425781 216.410156 C 297.769531 216.15625 298.308594 216.027344 299.027344 216.027344 C 299.804688 216.027344 300.398438 216.210938 300.792969 216.554688 C 301.082031 216.808594 301.226562 217.257812 301.226562 217.890625 L 301.226562 218.289062 C 300.632812 218.507812 299.714844 218.6875 298.488281 218.832031 C 297.949219 218.886719 297.496094 218.976562 297.121094 219.070312 C 296.703125 219.195312 296.34375 219.359375 296.019531 219.574219 C 295.679688 219.808594 295.40625 220.117188 295.226562 220.460938 C 295.03125 220.824219 294.941406 221.238281 294.941406 221.691406 C 294.941406 222.453125 295.210938 223.066406 295.730469 223.554688 C 296.289062 224.042969 297.046875 224.296875 298.039062 224.296875 C 298.613281 224.296875 299.191406 224.207031 299.730469 224.007812 C 300.253906 223.808594 300.792969 223.464844 301.371094 222.976562 C 301.425781 223.390625 301.53125 223.773438 301.675781 224.117188 L 303.296875 224.117188 C 303.097656 223.753906 302.972656 223.390625 302.902344 223.011719 C 302.847656 222.667969 302.8125 221.765625 302.8125 220.28125 L 302.8125 218.183594 C 302.8125 217.546875 302.792969 217.078125 302.722656 216.769531 C 302.632812 216.355469 302.488281 216.011719 302.253906 215.722656 C 302.019531 215.433594 301.660156 215.214844 301.191406 215.035156 C 300.6875 214.851562 300.054688 214.761719 299.296875 214.761719 C 298.507812 214.761719 297.820312 214.871094 297.226562 215.089844 C 296.652344 215.304688 296.199219 215.613281 295.875 216.011719 C 295.570312 216.410156 295.335938 216.914062 295.191406 217.566406 L 296.703125 217.765625 C 296.832031 217.097656 297.082031 216.664062 297.425781 216.410156 Z M 301.207031 219.503906 L 301.207031 220.0625 C 301.207031 220.75 301.117188 221.277344 300.957031 221.621094 C 300.738281 222.070312 300.398438 222.433594 299.929688 222.6875 C 299.460938 222.941406 298.9375 223.066406 298.34375 223.066406 C 297.730469 223.066406 297.28125 222.941406 296.976562 222.667969 C 296.667969 222.398438 296.507812 222.054688 296.507812 221.636719 C 296.507812 221.367188 296.578125 221.132812 296.722656 220.914062 C 296.867188 220.679688 297.066406 220.515625 297.335938 220.40625 C 297.605469 220.28125 298.054688 220.171875 298.667969 220.101562 C 299.839844 219.917969 300.6875 219.71875 301.207031 219.503906 Z M 301.207031 219.503906 " fill-opacity="1" fill-rule="nonzero"/><path fill="#1d1d1b" d="M 305.601562 216.859375 C 306.089844 216.300781 306.71875 216.011719 307.496094 216.011719 C 308.015625 216.011719 308.449219 216.171875 308.808594 216.480469 C 309.167969 216.808594 309.421875 217.257812 309.566406 217.855469 L 311.0625 217.621094 C 310.882812 216.699219 310.484375 215.992188 309.855469 215.484375 C 309.222656 214.980469 308.414062 214.726562 307.441406 214.726562 C 306.648438 214.726562 305.925781 214.90625 305.277344 215.269531 C 304.613281 215.632812 304.109375 216.191406 303.800781 216.933594 C 303.476562 217.675781 303.316406 218.527344 303.316406 219.503906 C 303.316406 221.023438 303.695312 222.179688 304.449219 223.011719 C 305.207031 223.828125 306.199219 224.242188 307.457031 224.242188 C 308.449219 224.242188 309.277344 223.953125 309.960938 223.355469 C 310.648438 222.777344 311.0625 221.945312 311.222656 220.894531 L 309.710938 220.695312 C 309.601562 221.476562 309.351562 222.035156 308.953125 222.398438 C 308.558594 222.757812 308.054688 222.957031 307.441406 222.957031 C 306.683594 222.957031 306.089844 222.6875 305.601562 222.125 C 305.136719 221.566406 304.902344 220.679688 304.902344 219.464844 C 304.863281 218.308594 305.117188 217.421875 305.601562 216.859375 Z M 305.601562 216.859375 " fill-opacity="1" fill-rule="nonzero"/><g clip-path="url(#ad5b0a8681)"><path fill="#1d1d1b" d="M 311.871094 214.960938 L 310.738281 214.960938 L 310.738281 216.15625 L 311.871094 216.15625 L 311.871094 221.402344 C 311.871094 222.289062 311.925781 222.902344 312.070312 223.230469 C 312.195312 223.519531 312.414062 223.734375 312.71875 223.917969 C 313.042969 224.097656 313.476562 224.1875 314.015625 224.1875 C 314.359375 224.1875 314.753906 224.132812 315.1875 224.042969 L 314.96875 222.6875 C 314.644531 222.722656 314.429688 222.742188 314.285156 222.742188 C 314.050781 222.742188 313.890625 222.703125 313.746094 222.613281 C 313.617188 222.542969 313.546875 222.453125 313.492188 222.324219 C 313.4375 222.199219 313.402344 221.910156 313.402344 221.476562 L 313.402344 216.15625 L 314.953125 216.15625 L 314.953125 214.945312 L 313.402344 214.945312 L 313.402344 211.777344 L 311.871094 212.699219 Z M 311.871094 214.960938 " fill-opacity="1" fill-rule="nonzero"/></g><path fill="#1d1d1b" d="M 321.796875 215.976562 C 321.003906 215.160156 319.976562 214.746094 318.734375 214.746094 C 317.601562 214.746094 316.644531 215.070312 315.871094 215.757812 C 314.933594 216.570312 314.464844 217.820312 314.464844 219.503906 C 314.464844 221.039062 314.863281 222.214844 315.636719 223.046875 C 316.429688 223.863281 317.457031 224.277344 318.71875 224.277344 C 319.492188 224.277344 320.230469 224.078125 320.894531 223.71875 C 321.582031 223.355469 322.085938 222.832031 322.425781 222.164062 C 322.789062 221.476562 322.96875 220.570312 322.96875 219.394531 C 322.984375 217.945312 322.589844 216.808594 321.796875 215.976562 Z M 316.824219 216.898438 C 317.328125 216.320312 317.960938 216.027344 318.734375 216.027344 C 319.492188 216.027344 320.121094 216.320312 320.625 216.898438 C 321.128906 217.476562 321.382812 218.328125 321.382812 219.464844 C 321.382812 220.679688 321.128906 221.546875 320.625 222.144531 C 320.121094 222.722656 319.492188 223.011719 318.734375 223.011719 C 317.960938 223.011719 317.328125 222.722656 316.824219 222.144531 C 316.320312 221.566406 316.070312 220.695312 316.070312 219.519531 C 316.070312 218.328125 316.320312 217.457031 316.824219 216.898438 Z M 316.824219 216.898438 " fill-opacity="1" fill-rule="nonzero"/><path fill="#1d1d1b" d="M 325.832031 216.644531 C 326.085938 216.445312 326.390625 216.355469 326.734375 216.355469 C 327.109375 216.355469 327.488281 216.464844 327.867188 216.679688 L 328.40625 215.25 C 327.867188 214.925781 327.328125 214.746094 326.824219 214.746094 C 326.460938 214.746094 326.121094 214.851562 325.832031 215.050781 C 325.542969 215.25 325.21875 215.667969 324.859375 216.335938 L 324.859375 214.960938 L 323.472656 214.960938 L 323.472656 224.078125 L 325.019531 224.0625 L 325.019531 219.304688 C 325.019531 218.652344 325.113281 218.054688 325.273438 217.496094 C 325.363281 217.132812 325.542969 216.84375 325.832031 216.644531 Z M 325.832031 216.644531 " fill-opacity="1" fill-rule="nonzero"/><g clip-path="url(#23ba2e7059)"><path fill="#1d1d1b" d="M 336.890625 214.960938 L 335.34375 214.960938 L 333.414062 220.28125 C 333.164062 220.949219 332.945312 221.636719 332.765625 222.359375 C 332.570312 221.582031 332.351562 220.878906 332.117188 220.246094 L 330.226562 214.960938 L 328.570312 214.960938 L 332.011719 224.097656 L 331.882812 224.476562 C 331.6875 225.058594 331.523438 225.4375 331.414062 225.617188 C 331.289062 225.835938 331.128906 225.980469 330.910156 226.089844 C 330.695312 226.214844 330.425781 226.269531 330.101562 226.269531 C 329.847656 226.269531 329.5625 226.214844 329.21875 226.125 L 329.378906 227.570312 C 329.777344 227.699219 330.101562 227.769531 330.371094 227.769531 C 330.855469 227.769531 331.289062 227.644531 331.632812 227.410156 C 331.992188 227.171875 332.296875 226.792969 332.570312 226.289062 C 332.800781 225.851562 333.089844 225.164062 333.433594 224.207031 Z M 336.890625 214.960938 " fill-opacity="1" fill-rule="nonzero"/></g></svg>